<svg width="123" height="36" viewBox="0 0 123 36" fill="none" xmlns="http://www.w3.org/2000/svg">
<path d="M16.9085 35.989C16.8978 35.9784 16.6771 35.9543 16.418 35.9356C15.766 35.8884 15.1256 35.8075 15.1256 35.7723C15.1256 35.7588 14.9625 35.7347 14.4925 35.6788C14.389 35.6665 14.2427 35.637 14.1674 35.6133C14.0922 35.5895 13.9382 35.5519 13.8252 35.5297C13.5053 35.4668 13.4884 35.4618 13.3978 35.4054C13.3508 35.3762 13.2508 35.3386 13.1753 35.322C13.0999 35.3054 12.9766 35.2764 12.9013 35.2576C12.826 35.2389 12.7089 35.2111 12.6409 35.1959C12.573 35.1807 12.4031 35.1206 12.2633 35.0623C12.1235 35.0041 12.002 34.9571 11.9933 34.9579C11.9845 34.9587 11.9235 34.942 11.8576 34.9208C11.6397 34.8507 11.5671 34.8314 11.5325 34.8343C11.5137 34.8358 11.4213 34.7946 11.3272 34.7427C11.2331 34.6908 11.1407 34.6461 11.1219 34.6434C11.1031 34.6408 11.0107 34.5961 10.9166 34.5442C10.8225 34.4923 10.7455 34.4581 10.7455 34.4682C10.7455 34.511 9.91386 34.1069 9.80447 34.0109C9.73859 33.9531 9.6847 33.928 9.6847 33.9551C9.6847 33.9822 9.59653 33.9419 9.48877 33.8653C9.381 33.7888 9.2776 33.7414 9.25898 33.76C9.24036 33.7785 9.18618 33.7469 9.13856 33.6897C9.09095 33.6325 9.02017 33.5857 8.98128 33.5857C8.94239 33.5857 8.81138 33.5103 8.69013 33.4181C8.56889 33.3258 8.45544 33.2646 8.43801 33.282C8.42059 33.2994 8.35042 33.252 8.28208 33.1767C8.21375 33.1014 8.13384 33.0398 8.10451 33.0398C8.07519 33.0398 7.82588 32.8685 7.5505 32.6591C7.27512 32.4497 6.89329 32.1608 6.70199 32.0171C6.33761 31.7434 5.01058 30.538 4.97747 30.4507C4.96691 30.4229 4.81165 30.2484 4.63243 30.063C4.22113 29.6375 3.28695 28.4724 3.23015 28.314C3.20659 28.2484 3.15555 28.1946 3.11673 28.1946C3.0779 28.1946 3.04614 28.1622 3.04614 28.1226C3.04614 28.083 2.92295 27.8698 2.77238 27.6487C2.62182 27.4276 2.49863 27.2252 2.49863 27.1989C2.49863 27.1725 2.39084 26.9891 2.25909 26.7912C2.12735 26.5933 2.01887 26.3905 2.01804 26.3405C2.01726 26.2906 1.95629 26.173 1.88268 26.0791C1.80907 25.9853 1.74816 25.8691 1.74732 25.8208C1.74655 25.7726 1.70143 25.6651 1.6472 25.582C1.52556 25.3955 0.859036 23.6243 0.665867 22.9742C0.46377 22.294 0.257167 21.3475 0.125496 20.4987C-0.0433731 19.4101 -0.041446 16.6705 0.129027 15.4676C0.246822 14.6365 0.321558 14.2202 0.374107 14.1028C0.429034 13.9799 0.488875 13.7382 0.534615 13.4545C0.550852 13.3537 0.76624 12.6306 0.839527 12.4308C0.86018 12.3745 0.880056 12.2978 0.883693 12.2602C0.897933 12.1134 1.56557 10.4834 1.62828 10.4424C1.66492 10.4184 1.67359 10.3645 1.64757 10.3225C1.62154 10.2805 1.6464 10.2285 1.70292 10.2069C1.75938 10.1852 1.78884 10.124 1.76837 10.0709C1.7479 10.0177 1.76061 9.97414 1.7966 9.97414C1.83259 9.97414 1.9192 9.83595 1.98905 9.66705C2.0589 9.49815 2.13479 9.35997 2.15768 9.35997C2.18058 9.35997 2.24161 9.25248 2.2933 9.12112C2.345 8.98976 2.4086 8.88228 2.43465 8.88228C2.4607 8.88228 2.52028 8.79015 2.56706 8.67755C2.61383 8.56495 2.68098 8.47283 2.71628 8.47283C2.75158 8.47283 2.76274 8.44424 2.74108 8.4093C2.71942 8.37436 2.77258 8.26952 2.85921 8.17632C2.94583 8.08312 3.06182 7.9203 3.11697 7.81451C3.17211 7.70872 3.30192 7.53263 3.40544 7.4232C3.50895 7.31377 3.59364 7.18528 3.59364 7.13768C3.59364 7.09007 3.61954 7.04089 3.65119 7.02838C3.68285 7.01586 3.8252 6.85209 3.96752 6.66442C4.32356 6.19497 5.52149 4.92334 5.57604 4.95695C5.60048 4.97202 5.68029 4.90374 5.75341 4.80523C5.82652 4.70672 5.95787 4.56269 6.04529 4.48517C6.13272 4.40764 6.29677 4.25976 6.40986 4.15655C6.52295 4.05333 6.64237 3.96888 6.67525 3.96888C6.70812 3.96888 6.75965 3.9305 6.78975 3.88358C6.84718 3.79408 7.25708 3.49119 7.32078 3.49119C7.34113 3.49119 7.41429 3.43745 7.48336 3.37177C7.55244 3.30609 7.6794 3.20629 7.7655 3.14999C7.85161 3.09369 7.96081 3.0107 8.00818 2.96557C8.05555 2.92044 8.11337 2.90253 8.13667 2.92576C8.15997 2.94899 8.17904 2.93712 8.17904 2.89935C8.17904 2.82807 8.51663 2.63947 8.60678 2.66039C8.63501 2.66695 8.65811 2.64002 8.65811 2.60057C8.65811 2.56112 8.7659 2.48394 8.89764 2.42905C9.02939 2.37416 9.13718 2.29715 9.13718 2.2579C9.13718 2.21866 9.16798 2.20553 9.20562 2.22872C9.24326 2.25192 9.27406 2.24514 9.27406 2.21365C9.27406 2.18217 9.43176 2.09591 9.62452 2.02197C9.81727 1.94802 9.9892 1.85107 10.0066 1.80652C10.024 1.76198 10.0779 1.74071 10.1264 1.75927C10.1749 1.77782 10.2611 1.74664 10.3179 1.68997C10.3747 1.6333 10.4403 1.60594 10.4636 1.62917C10.4869 1.65241 10.506 1.63378 10.506 1.58778C10.506 1.54178 10.5368 1.52311 10.5744 1.54631C10.612 1.56951 10.6428 1.55268 10.6428 1.50892C10.6428 1.46515 10.689 1.44702 10.7455 1.46863C10.802 1.49023 10.8482 1.47634 10.8482 1.43778C10.8482 1.39921 10.8789 1.38663 10.9166 1.40983C10.9542 1.43303 10.985 1.41766 10.985 1.37571C10.985 1.33375 11.0158 1.31839 11.0535 1.34159C11.0911 1.36478 11.1219 1.34942 11.1219 1.30747C11.1219 1.2655 11.1526 1.25009 11.1902 1.27323C11.2277 1.29636 11.4453 1.23164 11.6738 1.1294C11.9023 1.02716 12.1334 0.943514 12.1873 0.943514C12.2412 0.943514 12.2854 0.916107 12.2854 0.882615C12.2854 0.849123 12.3162 0.840698 12.3538 0.86389C12.3914 0.887087 12.4222 0.876268 12.4222 0.839834C12.4222 0.803407 12.4761 0.782193 12.542 0.79269C12.6079 0.803193 12.7493 0.767495 12.8563 0.713378C12.9634 0.659261 13.0674 0.631382 13.0875 0.651429C13.1076 0.671475 13.2202 0.647853 13.3377 0.59893C13.4553 0.550009 13.6747 0.485234 13.8252 0.454989C13.9758 0.424745 14.1452 0.390391 14.2016 0.378647C14.6091 0.293897 14.7293 0.272123 14.8347 0.263916C14.9006 0.25879 14.9545 0.238143 14.9545 0.218035C14.9545 0.197929 15.0546 0.175895 15.1769 0.169073C15.2992 0.162244 15.5379 0.139547 15.7073 0.118617C17.1521 -0.0599074 19.5306 -0.0334414 20.7376 0.174586C20.8128 0.187566 20.8744 0.204735 20.8744 0.212752C20.8744 0.22076 20.9668 0.23743 21.0797 0.249783C21.3087 0.274828 21.5433 0.319165 22.0125 0.426045C22.1868 0.465739 22.3715 0.504586 22.4231 0.51237C22.4747 0.520146 22.5553 0.550433 22.6022 0.579656C22.6492 0.608877 22.7493 0.646397 22.8247 0.663035C22.9001 0.67967 23.0234 0.708643 23.0987 0.72741C23.3296 0.784973 23.5401 0.836938 23.612 0.854102C23.6496 0.863097 23.7497 0.908446 23.8344 0.954878C23.9191 1.00131 23.9884 1.02215 23.9884 1.0012C23.9884 0.98025 24.0654 1.01341 24.1595 1.07489C24.2536 1.13637 24.3306 1.16708 24.3306 1.14314C24.3306 1.11919 24.4139 1.15405 24.5158 1.22059C24.6176 1.28714 24.7023 1.33174 24.704 1.31972C24.7057 1.30771 24.7994 1.33379 24.9123 1.37768C25.0252 1.42158 25.1484 1.4636 25.1861 1.47106C25.2237 1.47853 25.3238 1.52262 25.4085 1.56905C25.4932 1.61548 25.5625 1.63547 25.5625 1.61348C25.5625 1.59148 25.6703 1.65546 25.802 1.75566C25.9338 1.85586 26.0416 1.91963 26.0416 1.89738C26.0416 1.87514 26.1955 1.94747 26.3837 2.05812C26.572 2.16877 26.7259 2.24216 26.7259 2.22121C26.7259 2.20027 26.8491 2.28042 26.9997 2.39932C27.1503 2.51823 27.2735 2.59283 27.2735 2.56509C27.2735 2.53735 27.3383 2.57316 27.4175 2.64465C27.4968 2.71616 27.5814 2.77179 27.6057 2.76829C27.6633 2.76 28.1706 3.12172 28.5112 3.41383C28.6586 3.54018 28.7791 3.61823 28.7791 3.58728C28.7791 3.55633 28.9145 3.6635 29.08 3.82543C29.2454 3.98736 29.4071 4.11808 29.4393 4.11593C29.5266 4.11009 31.0255 5.49159 31.032 5.58389C31.0351 5.62765 31.1608 5.76074 31.3113 5.87964C31.4619 5.99855 31.5851 6.13355 31.5851 6.17963C31.5851 6.22572 31.6775 6.33154 31.7904 6.41479C31.9033 6.49803 31.9957 6.60391 31.9957 6.65005C31.9957 6.6962 32.0573 6.77231 32.1326 6.81919C32.2079 6.86607 32.2695 6.94915 32.2695 7.00381C32.2695 7.05847 32.3311 7.13606 32.4064 7.17623C32.4816 7.21641 32.5432 7.27938 32.5432 7.31616C32.5432 7.35295 32.6937 7.58986 32.8777 7.84263C33.2153 8.30655 33.3242 8.48554 33.7595 9.29172C33.8913 9.53568 34.0565 9.8168 34.1266 9.91643C34.1968 10.0161 34.2542 10.1287 34.2542 10.1668C34.2542 10.2049 34.3056 10.3383 34.3684 10.4634C34.5924 10.909 34.6137 10.9564 34.6685 11.1296C34.6989 11.226 34.8206 11.5505 34.9389 11.8508C35.2279 12.5846 35.446 13.4055 35.7637 14.9558C36.0305 16.2573 36.0818 19.0814 35.8641 20.4833C35.8153 20.7981 35.6958 21.4718 35.6704 21.5752C35.6566 21.6315 35.621 21.8311 35.5912 22.0188C35.5615 22.2064 35.5187 22.3907 35.4963 22.4282C35.4739 22.4657 35.4544 22.5272 35.4531 22.5647C35.4501 22.6513 35.1557 23.6156 35.0365 23.9295C35.008 24.0046 34.9808 24.0814 34.976 24.1001C34.9467 24.2162 34.6306 25.0025 34.49 25.3089C34.398 25.5096 34.3226 25.701 34.3226 25.7343C34.3226 25.7676 34.2995 25.805 34.2713 25.8175C34.2431 25.8301 34.1433 26.0092 34.0496 26.2156C33.9559 26.422 33.8612 26.6063 33.8392 26.6251C33.8172 26.6438 33.6943 26.8511 33.5661 27.0857C33.4378 27.3203 33.3074 27.5122 33.2762 27.5122C33.2451 27.5122 33.2399 27.545 33.2648 27.5852C33.2897 27.6253 33.2599 27.7098 33.1986 27.7728C33.0394 27.9368 32.4067 28.8058 32.4048 28.8631C32.4038 28.8895 32.2961 29.0297 32.1652 29.1746C32.0344 29.3195 31.9273 29.4583 31.9273 29.483C31.9273 29.5077 31.704 29.7618 31.4311 30.0478C31.1582 30.3337 30.8322 30.6787 30.7066 30.8146C30.581 30.9504 30.4501 31.0442 30.4157 31.023C30.3813 31.0018 30.3525 31.0093 30.3516 31.0397C30.3492 31.1226 29.8974 31.6067 29.8223 31.6067C29.7865 31.6067 29.6756 31.7047 29.5761 31.8246C29.4765 31.9444 29.3951 32.0165 29.3951 31.9847C29.3951 31.953 29.3412 31.9857 29.2753 32.0575C29.2094 32.1292 29.0246 32.2763 28.8647 32.3843C28.7047 32.4923 28.5738 32.6072 28.5738 32.6396C28.5738 32.672 28.5323 32.6986 28.4816 32.6986C28.4002 32.6986 28.3032 32.7642 27.975 33.0412C27.9279 33.0809 27.8894 33.0956 27.8894 33.0739C27.8894 33.0522 27.8509 33.0676 27.8039 33.1082C27.7568 33.1489 27.5489 33.2869 27.3419 33.4151C27.1349 33.5432 26.9303 33.6783 26.8872 33.7152C26.8442 33.752 26.7903 33.7636 26.7675 33.7408C26.7446 33.7181 26.7259 33.7296 26.7259 33.7665C26.7259 33.8034 26.5566 33.9036 26.3495 33.9891C26.1425 34.0747 25.9731 34.1659 25.9731 34.1919C25.9731 34.2178 25.9043 34.2442 25.8201 34.2506C25.736 34.2569 25.6564 34.2943 25.6432 34.3337C25.63 34.3732 25.5911 34.3881 25.5566 34.3669C25.5222 34.3457 25.494 34.3626 25.494 34.4046C25.494 34.4466 25.4654 34.4632 25.4303 34.4416C25.3953 34.42 25.347 34.4341 25.323 34.4728C25.2989 34.5116 25.2506 34.5256 25.2156 34.504C25.1805 34.4825 25.1519 34.4991 25.1519 34.5411C25.1519 34.583 25.1211 34.5984 25.0834 34.5752C25.0458 34.552 25.015 34.559 25.015 34.5908C25.015 34.6225 24.9611 34.6527 24.8952 34.6579C24.8293 34.663 24.5646 34.7617 24.307 34.8771C24.0494 34.9926 23.8107 35.0699 23.7766 35.0489C23.7425 35.0279 23.7146 35.0451 23.7146 35.087C23.7146 35.129 23.6838 35.1443 23.6462 35.1211C23.6086 35.0979 23.5778 35.1133 23.5778 35.1553C23.5778 35.1972 23.547 35.2126 23.5093 35.1894C23.4717 35.1662 23.4409 35.1731 23.4409 35.2049C23.4409 35.2366 23.387 35.266 23.3211 35.2703C23.0793 35.286 22.7581 35.3509 22.6781 35.4002C22.5991 35.4489 22.2648 35.5301 21.8326 35.6056C21.6188 35.643 21.4491 35.6752 21.1311 35.7389C20.6021 35.8448 20.3013 35.8845 19.5741 35.9445C19.1126 35.9826 16.9384 36.0189 16.9085 35.989ZM19.6083 34.4378C19.7401 34.4139 20.0095 34.389 20.207 34.3825C20.4046 34.3759 20.5663 34.3423 20.5663 34.3079C20.5664 34.2735 20.5834 34.2622 20.6041 34.2829C20.6247 34.3035 20.771 34.2905 20.9291 34.2541C21.198 34.1921 21.2804 34.1755 21.6786 34.104C21.7633 34.0887 21.9141 34.0446 22.0138 34.0059C22.1134 33.9673 22.2088 33.9494 22.2257 33.9663C22.2426 33.9832 22.365 33.9517 22.4978 33.8964C22.6305 33.8411 22.7584 33.8151 22.782 33.8386C22.8056 33.8622 22.8249 33.8438 22.8249 33.7978C22.8249 33.7518 22.8537 33.7318 22.8888 33.7535C22.9239 33.7751 23.1217 33.7182 23.3283 33.6271C23.535 33.536 23.7218 33.4791 23.7436 33.5008C23.7653 33.5225 23.7831 33.5061 23.7831 33.4645C23.7831 33.4229 23.8447 33.4007 23.92 33.4151C23.9952 33.4296 24.0568 33.4124 24.0568 33.3771C24.0568 33.3417 24.0802 33.3204 24.1088 33.3298C24.1862 33.3552 25.1097 32.9573 25.1679 32.8734C25.1956 32.8335 25.2187 32.8275 25.2192 32.86C25.2198 32.8924 25.2973 32.8687 25.3914 32.8072C25.4855 32.7457 25.5634 32.7192 25.5646 32.7482C25.5657 32.7772 25.5984 32.7466 25.6372 32.6801C25.676 32.6136 25.7367 32.577 25.772 32.5988C25.8073 32.6206 25.8362 32.6059 25.8362 32.5661C25.8362 32.5264 25.8824 32.4938 25.9389 32.4938C25.9954 32.4938 26.0974 32.4382 26.1656 32.3702C26.2338 32.3021 26.3262 32.2586 26.3709 32.2735C26.4156 32.2883 26.4522 32.2621 26.4522 32.2152C26.4522 32.1683 26.4709 32.1485 26.4937 32.1713C26.5325 32.21 26.594 32.1721 26.8228 31.9682C26.8735 31.9231 26.9296 31.9008 26.9476 31.9187C26.9655 31.9366 27.0192 31.9044 27.0668 31.8472C27.1144 31.79 27.1785 31.7432 27.2092 31.7432C27.2399 31.7432 27.3653 31.6519 27.4878 31.5403C27.6103 31.4287 27.7246 31.3514 27.7417 31.3685C27.7588 31.3855 27.8299 31.3339 27.8996 31.2538C27.9693 31.1737 28.0263 31.1329 28.0263 31.1631C28.0263 31.1934 28.0838 31.152 28.1541 31.0712C28.2244 30.9904 28.3123 30.9243 28.3495 30.9243C28.3867 30.9243 28.4985 30.8263 28.5981 30.7064C28.6977 30.5866 28.7791 30.5124 28.7791 30.5417C28.7791 30.5709 28.8864 30.4847 29.0174 30.3501C29.1485 30.2155 29.2761 30.1054 29.3009 30.1054C29.3512 30.1054 29.6039 29.8469 29.8945 29.498L30.0861 29.2682L29.9288 29.0999C29.8423 29.0074 29.6568 28.8407 29.5166 28.7294L29.2617 28.5271L29.0625 28.7533C28.5975 29.2811 28.3582 29.5253 28.3058 29.5253C28.2752 29.5253 28.1535 29.6284 28.0355 29.7543C27.9175 29.8803 27.821 29.9637 27.821 29.9397C27.821 29.9156 27.7342 29.9815 27.6282 30.086C27.5221 30.1905 27.3644 30.3221 27.2776 30.3784C27.1908 30.4347 27.0796 30.5191 27.0304 30.566C26.9813 30.6129 26.9221 30.6513 26.899 30.6513C26.8759 30.6513 26.6889 30.7751 26.4835 30.9264C26.2781 31.0778 26.11 31.184 26.11 31.1626C26.11 31.1261 26.0279 31.1857 25.8078 31.3817C25.7571 31.4268 25.6966 31.4447 25.6733 31.4215C25.65 31.3982 25.6309 31.4183 25.6309 31.4662C25.6309 31.5154 25.5864 31.536 25.5283 31.5138C25.4718 31.4922 25.4256 31.5005 25.4256 31.5323C25.4256 31.5641 25.3332 31.6283 25.2203 31.6749C25.1074 31.7216 25.015 31.7802 25.015 31.8052C25.015 31.8302 24.9461 31.8558 24.862 31.8621C24.7779 31.8684 24.6982 31.9059 24.6851 31.9453C24.6719 31.9847 24.6329 31.9996 24.5985 31.9784C24.5641 31.9572 24.5359 31.9742 24.5359 32.0162C24.5359 32.0581 24.5072 32.0748 24.4722 32.0532C24.4372 32.0316 24.3888 32.0456 24.3648 32.0844C24.3408 32.1231 24.2925 32.1372 24.2574 32.1156C24.2224 32.094 24.1937 32.1107 24.1937 32.1526C24.1937 32.1946 24.1629 32.21 24.1253 32.1868C24.0876 32.1636 24.0568 32.1822 24.0568 32.2282C24.0568 32.2742 24.0387 32.2937 24.0165 32.2716C23.9942 32.2494 23.7296 32.3365 23.4284 32.4651C23.1272 32.5936 22.8528 32.6816 22.8186 32.6605C22.7844 32.6395 22.7565 32.6566 22.7565 32.6986C22.7565 32.7405 22.7257 32.7559 22.6881 32.7327C22.6504 32.7095 22.6196 32.7249 22.6196 32.7668C22.6196 32.8088 22.5895 32.8245 22.5526 32.8018C22.5157 32.7791 22.4191 32.796 22.3378 32.8393C22.1913 32.9175 21.8747 32.9895 21.6444 32.9969C21.5785 32.999 21.5246 33.0198 21.5246 33.043C21.5246 33.084 21.47 33.097 21.1824 33.1243C21.1071 33.1314 21.0455 33.1572 21.0455 33.1815C21.0455 33.2058 20.9685 33.2173 20.8744 33.207C20.7803 33.1967 20.7033 33.2121 20.7033 33.2411C20.7033 33.2702 20.6312 33.2861 20.5431 33.2764C20.4549 33.2668 20.247 33.288 20.0811 33.3235C19.9152 33.3591 19.5407 33.3921 19.249 33.3969C18.9573 33.4018 18.7186 33.4266 18.7186 33.4522C18.7186 33.4778 18.6339 33.4859 18.5304 33.4703C18.4269 33.4547 18.3114 33.4425 18.2738 33.4433C17.6834 33.4551 17.3777 33.4559 17.3498 33.4455C17.331 33.4386 17.1154 33.4225 16.8708 33.4098C16.6261 33.3971 16.3104 33.3707 16.1692 33.3512C15.5324 33.2628 15.3907 33.2421 15.2625 33.2187C15.1872 33.2049 15.1256 33.1871 15.1256 33.1791C15.1256 33.1711 15.0332 33.1546 14.9203 33.1425C14.8073 33.1303 14.6457 33.1023 14.561 33.0801C14.3199 33.017 14.1454 32.9742 13.9894 32.94C13.9102 32.9226 13.7965 32.8689 13.7367 32.8206C13.645 32.7465 13.6374 32.7488 13.6884 32.835C13.7393 32.9213 13.7317 32.9235 13.64 32.8495C13.5802 32.8012 13.4665 32.7475 13.3874 32.7301C13.3083 32.7128 13.1742 32.6814 13.0895 32.6605C13.0048 32.6395 12.9047 32.615 12.8671 32.606C12.8295 32.597 12.7294 32.5517 12.6447 32.5052C12.56 32.4588 12.4907 32.4379 12.4907 32.4589C12.4907 32.4798 12.4153 32.4477 12.3232 32.3876C12.2311 32.3274 12.1392 32.2793 12.1191 32.2807C12.099 32.282 11.9743 32.2381 11.8421 32.183C11.7098 32.1279 11.5938 32.0907 11.5842 32.1004C11.5746 32.1101 11.46 32.0421 11.3294 31.9495C11.1989 31.8568 11.0499 31.7748 10.9983 31.7672C10.9468 31.7597 10.8457 31.7004 10.7737 31.6354C10.7017 31.5705 10.6428 31.5422 10.6428 31.5726C10.6428 31.603 10.5812 31.5722 10.506 31.5043C10.4307 31.4364 10.3691 31.4035 10.3691 31.4313C10.3691 31.459 10.2459 31.3844 10.0953 31.2655C9.94477 31.1466 9.82158 31.0726 9.82158 31.101C9.82158 31.1295 9.74458 31.0807 9.65048 30.9925C9.55638 30.9044 9.47938 30.8583 9.47938 30.8902C9.47938 30.922 9.41009 30.8846 9.32539 30.8071C9.2407 30.7296 8.95733 30.5058 8.69569 30.3099C8.03304 29.8136 6.75858 28.612 6.24032 27.9949C5.70879 27.3619 4.96242 26.3836 4.96242 26.3198C4.96242 26.294 4.86189 26.1141 4.73901 25.9201C4.61614 25.7261 4.48298 25.5059 4.44311 25.4308C4.40324 25.3558 4.32064 25.2022 4.25956 25.0896C4.04383 24.6919 3.66209 23.8299 3.66209 23.7404C3.66209 23.6905 3.63577 23.6206 3.6036 23.5849C3.50564 23.4763 3.08493 22.1234 2.85133 21.1657C2.69775 20.5361 2.51375 18.537 2.53728 17.7537C2.58 16.3312 2.72852 15.1415 2.96324 14.3416C3.02381 14.1352 3.07668 13.9509 3.08073 13.9321C3.08476 13.9134 3.11124 13.7905 3.13954 13.6592C3.16783 13.5278 3.2176 13.3589 3.25013 13.2839C3.39166 12.9572 3.55672 12.4605 3.54047 12.4101C3.53073 12.38 3.5682 12.31 3.62374 12.2546C3.67927 12.1992 3.70733 12.1087 3.68608 12.0535C3.66483 11.9983 3.67915 11.9531 3.7179 11.9531C3.75665 11.9531 3.82531 11.8415 3.87048 11.705C3.95835 11.4395 4.46907 10.4464 4.73357 10.0267C4.8218 9.88667 4.89399 9.7408 4.89399 9.70253C4.89399 9.66425 4.92105 9.63293 4.95412 9.63293C4.9872 9.63293 5.05253 9.5408 5.0993 9.4282C5.14608 9.31561 5.20371 9.22266 5.22737 9.22165C5.25104 9.22068 5.34588 9.0978 5.43814 8.94868C5.5304 8.79955 5.63049 8.67755 5.66057 8.67755C5.69064 8.67755 5.71525 8.64542 5.71525 8.60614C5.71525 8.53788 5.8774 8.35327 6.63917 7.55422C6.82738 7.3568 7.14305 7.01834 7.34067 6.80209C7.53829 6.58584 7.70069 6.43569 7.70156 6.46842C7.70253 6.50116 7.81023 6.40939 7.9411 6.2645C8.07197 6.11961 8.17905 6.02088 8.17905 6.04512C8.17905 6.06935 8.25708 6.01901 8.35246 5.93323C8.75017 5.57557 8.79792 5.53844 8.86003 5.53844C8.8958 5.53844 8.9497 5.49931 8.9798 5.4515C9.05208 5.33667 9.41036 5.11098 9.41302 5.1786C9.41419 5.20761 9.4465 5.17763 9.48486 5.11193C9.52323 5.04624 9.59599 4.99251 9.64656 4.99251C9.69712 4.99251 9.75697 4.94449 9.77955 4.88582C9.80213 4.82714 9.85162 4.79824 9.88953 4.8216C9.92744 4.84496 9.95845 4.83156 9.95845 4.79181C9.95845 4.75206 10.0056 4.71954 10.0633 4.71954C10.1209 4.71954 10.1857 4.67365 10.2073 4.61757C10.2289 4.56148 10.2741 4.53259 10.3078 4.55335C10.3415 4.57412 10.3691 4.55531 10.3691 4.51154C10.3691 4.46778 10.4153 4.44964 10.4717 4.47125C10.5282 4.49285 10.5744 4.4845 10.5744 4.45272C10.5744 4.42091 10.6668 4.35674 10.7797 4.3101C10.8926 4.26346 10.985 4.20485 10.985 4.17986C10.985 4.15487 11.0539 4.12925 11.138 4.12293C11.2221 4.1166 11.3018 4.07917 11.3149 4.03974C11.3281 4.0003 11.3671 3.9854 11.4015 4.00661C11.4359 4.02783 11.4641 4.01085 11.4641 3.96889C11.4641 3.92692 11.4949 3.91158 11.5325 3.93477C11.5702 3.95797 11.601 3.94113 11.601 3.89737C11.601 3.85361 11.6472 3.83548 11.7036 3.85708C11.7601 3.87869 11.8063 3.8648 11.8063 3.82624C11.8063 3.78767 11.8371 3.77509 11.8747 3.79829C11.9124 3.82148 11.9432 3.80612 11.9432 3.76416C11.9432 3.7222 11.974 3.70685 12.0116 3.73004C12.0493 3.75324 12.0801 3.74066 12.0801 3.70209C12.0801 3.66352 12.1263 3.64964 12.1827 3.67125C12.2392 3.69285 12.2854 3.67473 12.2854 3.63096C12.2854 3.58719 12.3162 3.57036 12.3538 3.59356C12.3915 3.61676 12.4222 3.6014 12.4222 3.55944C12.4222 3.51748 12.452 3.50147 12.4883 3.52387C12.5247 3.54628 12.6797 3.50086 12.8329 3.42296C12.986 3.34505 13.1411 3.29964 13.1774 3.32204C13.2138 3.34444 13.2435 3.32844 13.2435 3.28647C13.2435 3.24451 13.2743 3.22916 13.312 3.25236C13.3496 3.27555 13.3804 3.26858 13.3804 3.23688C13.3804 3.18173 13.4418 3.16721 13.8252 3.1317C13.9193 3.123 13.9963 3.08772 13.9963 3.05331C13.9963 3.01891 14.0158 3.01015 14.0396 3.03385C14.0633 3.05755 14.1392 3.04685 14.2081 3.01007C14.3167 2.95209 14.5758 2.89459 14.8689 2.86338C14.916 2.85837 14.9545 2.83532 14.9545 2.81215C14.9545 2.78898 15.1085 2.77211 15.2967 2.77466C15.4849 2.77721 15.6389 2.76079 15.6389 2.7382C15.6389 2.7156 15.7236 2.6908 15.8271 2.68309C15.9306 2.67537 16.1693 2.6536 16.3575 2.6347C16.5457 2.6158 17.1 2.58962 17.5894 2.57651C18.0787 2.5634 18.5099 2.54525 18.5475 2.53617C18.5852 2.52708 18.6314 2.52659 18.6502 2.53501C18.669 2.5435 18.823 2.55976 18.9924 2.57114C19.2837 2.5907 19.6848 2.63689 20.2243 2.71298C20.356 2.73157 20.5562 2.75806 20.6691 2.77187C20.782 2.78568 20.8744 2.80352 20.8744 2.81154C20.8744 2.81955 20.936 2.83537 21.0113 2.84668C21.0866 2.858 21.2175 2.88478 21.3022 2.90621C21.6692 2.99909 22.0229 3.08636 22.1063 3.10463C22.144 3.11287 22.2153 3.14486 22.2649 3.17571C22.3144 3.20657 22.3724 3.21446 22.3936 3.19326C22.4149 3.17205 22.4976 3.19053 22.5773 3.23433C22.7317 3.3191 22.75 3.32495 23.058 3.38841C23.1673 3.41094 23.3136 3.4597 23.383 3.49676C23.4525 3.53383 23.5093 3.54701 23.5093 3.52606C23.5093 3.50511 23.5863 3.53827 23.6804 3.59975C23.7745 3.66123 23.8515 3.69056 23.8515 3.66492C23.8515 3.63928 23.9439 3.68389 24.0568 3.76408C24.1698 3.84425 24.2622 3.89032 24.2622 3.86644C24.2622 3.84256 24.3545 3.88863 24.4675 3.9688C24.5804 4.04898 24.6728 4.09337 24.6728 4.06745C24.6728 4.04153 24.7221 4.06113 24.7823 4.111C24.8426 4.16086 24.9377 4.20836 24.9937 4.21655C25.0496 4.22474 25.1543 4.28459 25.2263 4.34955C25.2983 4.4145 25.3572 4.44597 25.3572 4.41948C25.3572 4.39298 25.465 4.45329 25.5967 4.55348C25.7285 4.65368 25.8362 4.71131 25.8362 4.68154C25.8362 4.65178 25.9157 4.70188 26.0129 4.79287C26.11 4.88386 26.2022 4.95082 26.2179 4.94167C26.2591 4.91754 26.7647 5.26322 27.0656 5.5213C27.2079 5.64328 27.3513 5.74414 27.3844 5.74542C27.4175 5.74678 27.6751 5.95826 27.9568 6.21552L28.469 6.68328L29.2616 5.85784L29.1059 5.69151C28.9036 5.47534 27.4958 4.37825 27.4207 4.37825C27.389 4.37825 27.3072 4.31665 27.2389 4.24135C27.1705 4.16605 27.0999 4.11913 27.0819 4.13708C27.0639 4.15504 26.9649 4.10148 26.862 4.01808C26.6768 3.86806 26.2309 3.60534 26.1931 3.62404C26.1824 3.62936 26.0941 3.57134 25.9969 3.4951C25.8997 3.41886 25.7965 3.37108 25.7675 3.38892C25.7386 3.40676 25.6768 3.37564 25.6303 3.31975C25.5838 3.26387 25.5075 3.21815 25.4607 3.21815C25.4139 3.21815 25.2945 3.1545 25.1953 3.07671C25.0961 2.99892 25.015 2.95639 25.015 2.9822C25.015 3.008 24.938 2.97881 24.8439 2.91734C24.7498 2.85585 24.6728 2.82515 24.6728 2.84909C24.6728 2.87304 24.5958 2.84232 24.5017 2.78085C24.4076 2.71937 24.3306 2.68866 24.3306 2.71261C24.3306 2.73656 24.2536 2.70584 24.1595 2.64437C24.0654 2.58288 23.9884 2.5524 23.9884 2.57663C23.9884 2.60086 23.9422 2.58246 23.8857 2.53573C23.8293 2.48901 23.7831 2.4688 23.7831 2.49083C23.7831 2.51285 23.6445 2.47164 23.4751 2.39925C23.3057 2.32685 23.1671 2.28563 23.1671 2.30766C23.1671 2.32969 23.1241 2.31209 23.0715 2.26854C23.0188 2.225 22.911 2.17517 22.8319 2.15782C22.7528 2.14047 22.6265 2.11093 22.5512 2.09216C22.4759 2.0734 22.3527 2.04268 22.2774 2.02392C22.2021 2.00516 22.079 1.97444 22.0037 1.95568C21.9284 1.93691 21.7975 1.90341 21.7128 1.88124C21.6281 1.85906 21.4664 1.83099 21.3535 1.81885C21.2406 1.80673 21.1482 1.79024 21.1482 1.78223C21.1482 1.75927 20.9704 1.72983 20.1388 1.6151C19.3952 1.51251 19.0559 1.49328 18.1027 1.49969C17.1166 1.50632 16.6352 1.53024 15.9468 1.6068C15.5162 1.6547 15.1405 1.7128 14.9545 1.76028C14.7717 1.80692 14.6131 1.83646 14.3379 1.87508C14.2434 1.88833 14.1012 1.93384 14.0218 1.97621C13.9424 2.01857 13.8628 2.03864 13.8449 2.02079C13.827 2.00294 13.6844 2.03337 13.5279 2.08841C13.3715 2.14344 13.2435 2.17557 13.2435 2.1598C13.2435 2.14404 13.1078 2.18916 12.9418 2.26008C12.7759 2.331 12.6219 2.37085 12.5996 2.34864C12.5774 2.32643 12.5591 2.3459 12.5591 2.3919C12.5591 2.43791 12.5294 2.45724 12.4931 2.43487C12.4269 2.39407 11.2202 2.87376 10.9361 3.05383C10.8527 3.10667 10.7363 3.1499 10.6773 3.1499C10.6184 3.1499 10.5524 3.19579 10.5309 3.25187C10.5093 3.30796 10.464 3.33685 10.4304 3.31609C10.3967 3.29532 10.3691 3.31413 10.3691 3.3579C10.3691 3.40166 10.3229 3.4198 10.2664 3.39819C10.21 3.37659 10.1638 3.38492 10.1638 3.41672C10.1638 3.44852 10.0714 3.51271 9.95845 3.55935C9.84553 3.60599 9.75314 3.67016 9.75314 3.70197C9.75314 3.73377 9.70694 3.74211 9.65048 3.7205C9.59234 3.69825 9.54782 3.71895 9.54782 3.76813C9.54782 3.81594 9.52914 3.83642 9.50631 3.81366C9.46633 3.77379 9.39844 3.81718 9.15681 4.03703C9.09493 4.09333 9.04211 4.12429 9.03942 4.10584C9.03102 4.04814 8.38436 4.53453 8.38436 4.59855C8.38436 4.63194 8.35193 4.63927 8.31229 4.61484C8.27265 4.59041 8.18026 4.63936 8.10698 4.72362C8.03369 4.80787 7.97373 4.85206 7.97373 4.82181C7.97373 4.79155 7.91213 4.83761 7.83685 4.92417C7.76157 5.01072 7.69997 5.05693 7.69997 5.02685C7.69997 4.99678 7.60924 5.06117 7.49834 5.16996C7.38745 5.27874 7.15507 5.49057 6.98195 5.64071C6.80884 5.79084 6.5531 6.03059 6.41365 6.1735C5.5485 7.06009 5.19978 7.44267 5.06432 7.65383C4.98004 7.78519 4.82255 7.99009 4.71433 8.10915C4.41231 8.44142 4.35224 8.52194 4.26675 8.70901C4.22323 8.80425 4.16177 8.88218 4.13017 8.88218C4.09858 8.88218 4.07272 8.92245 4.07272 8.97167C4.07272 9.02089 4.01298 9.1251 3.93996 9.20325C3.86695 9.2814 3.8282 9.36626 3.85385 9.39184C3.8795 9.41742 3.8462 9.46864 3.77985 9.50566C3.7135 9.54269 3.67721 9.60202 3.69921 9.63751C3.7212 9.673 3.69629 9.71846 3.64386 9.73852C3.59142 9.75858 3.50673 9.8812 3.45565 10.011C3.40458 10.1408 3.3387 10.247 3.30927 10.247C3.27983 10.247 3.27338 10.2928 3.29493 10.3488C3.31694 10.406 3.28791 10.4683 3.22867 10.4909C3.17068 10.5131 3.13998 10.5748 3.16045 10.628C3.18092 10.6812 3.16596 10.7247 3.12722 10.7247C3.08847 10.7247 3.01956 10.8399 2.9741 10.9806C2.92863 11.1214 2.86919 11.2672 2.842 11.3048C2.81482 11.3423 2.67654 11.6801 2.53472 12.0554C2.3929 12.4307 2.21898 12.8878 2.14822 13.0711C2.07746 13.2544 2.01957 13.4565 2.01957 13.5203C2.01957 13.5841 1.99647 13.6594 1.96823 13.6875C1.94 13.7156 1.91111 13.8052 1.90402 13.8865C1.89692 13.9679 1.85637 14.1726 1.81388 14.3415C1.66991 14.9139 1.51604 15.9715 1.43661 16.9347C1.38388 17.5742 1.40417 19.1114 1.47208 19.6218C1.50766 19.8892 1.55469 20.2768 1.5766 20.4832C1.5985 20.6897 1.67841 21.1196 1.75418 21.4386C1.82994 21.7577 1.90808 22.0954 1.92781 22.1893C1.99444 22.5061 2.44028 23.8589 2.58001 24.1683C2.6563 24.3372 2.75978 24.5675 2.80998 24.6801C2.90251 24.8877 3.27213 25.6428 3.49475 26.079C3.56178 26.2104 3.73465 26.4928 3.8789 26.7065C4.02315 26.9203 4.14117 27.1143 4.14117 27.1376C4.14117 27.1928 4.38934 27.5247 5.05901 28.3651C5.60463 29.0499 7.39747 30.855 7.53257 30.8556C7.57224 30.8558 7.70801 30.9622 7.83428 31.0921C7.96055 31.222 8.08507 31.3153 8.11099 31.2993C8.1369 31.2833 8.24453 31.3602 8.35015 31.4701C8.45577 31.5801 8.56416 31.6565 8.59101 31.6399C8.61786 31.6234 8.69492 31.6705 8.76224 31.7447C8.82957 31.8189 8.91547 31.8796 8.95314 31.8796C8.9908 31.8796 9.13232 31.9638 9.26761 32.0667C9.40291 32.1696 9.51361 32.2411 9.51361 32.2256C9.51361 32.2102 9.64933 32.283 9.8152 32.3874C9.98108 32.4918 10.1514 32.5823 10.1938 32.5885C10.2362 32.5947 10.3776 32.6756 10.5082 32.7683C10.6387 32.861 10.7526 32.9306 10.7614 32.923C10.7701 32.9154 10.8854 32.9542 11.0177 33.0093C11.1499 33.0644 11.2814 33.1106 11.3098 33.112C11.3382 33.1134 11.4307 33.1599 11.5154 33.2152C11.6001 33.2705 11.6694 33.2962 11.6694 33.2722C11.6694 33.2483 11.7464 33.279 11.8405 33.3405C11.9346 33.402 12.0116 33.4327 12.0116 33.4087C12.0116 33.3848 12.0886 33.4155 12.1827 33.477C12.2768 33.5385 12.3538 33.5716 12.3538 33.5507C12.3538 33.5297 12.4231 33.5505 12.5078 33.597C12.5925 33.6434 12.6926 33.6888 12.7302 33.6978C12.7679 33.7068 12.868 33.7313 12.9527 33.7522C13.0374 33.7732 13.1605 33.803 13.2264 33.8184C13.2923 33.8338 13.4277 33.8779 13.5274 33.9164C13.6271 33.9549 13.842 34.0062 14.005 34.0305C14.1681 34.0547 14.3269 34.0903 14.3581 34.1095C14.3893 34.1287 14.4823 34.154 14.5649 34.1657C14.6474 34.1774 14.8843 34.2225 15.0914 34.2659C15.5374 34.3595 15.8626 34.3996 16.4469 34.433C16.6842 34.4466 16.8917 34.4709 16.9079 34.487C16.9522 34.5312 19.3324 34.4877 19.6083 34.4378ZM18.9042 27.6404C18.9527 27.6546 19.0848 27.6765 19.1977 27.6889C19.698 27.7441 19.7858 27.7217 19.6965 28.311L19.7162 28.8584L20.8847 28.8538L20.8689 28.1659C20.8577 27.6745 20.8758 27.483 20.9323 27.4952C20.9757 27.5045 21.0113 27.4797 21.0113 27.4399C21.0113 27.4002 21.0421 27.3867 21.0798 27.4099C21.1174 27.4331 21.1482 27.4205 21.1482 27.3819C21.1482 27.3433 21.1944 27.3295 21.2508 27.3511C21.3073 27.3727 21.3535 27.3545 21.3535 27.3108C21.3535 27.267 21.3843 27.2502 21.4219 27.2734C21.4596 27.2966 21.4904 27.2894 21.4904 27.2575C21.4904 27.2256 21.6054 27.1475 21.746 27.0839L22.0015 26.9684L22.3448 27.294C23.0185 27.933 22.9641 27.9131 23.2187 27.6133C23.3409 27.4694 23.514 27.2778 23.6034 27.1877L23.7659 27.0238L23.2783 26.58C22.8411 26.1822 22.6806 25.9427 22.8512 25.9427C22.8844 25.9427 22.9297 25.8889 22.9519 25.8232C22.974 25.7575 23.0777 25.5042 23.1823 25.2602L23.3724 24.8167H24.6178L24.5888 24.339C24.5728 24.0763 24.55 23.8291 24.5382 23.7899C24.5251 23.7465 24.2984 23.7228 23.9617 23.7296C23.4197 23.7405 23.4067 23.7369 23.4067 23.5784C23.4067 23.3001 23.155 22.4946 22.981 22.2163C22.8897 22.0701 22.7951 21.8968 22.7708 21.8311C22.7465 21.7654 22.6948 21.7117 22.656 21.7117C22.6172 21.7117 22.5854 21.6679 22.5854 21.6143C22.5854 21.5607 22.5084 21.4565 22.4143 21.3827C22.3202 21.3089 22.2436 21.2222 22.2441 21.1901C22.2447 21.1579 22.4283 20.932 22.6522 20.6881L23.0593 20.2445L22.771 19.9492C22.2781 19.4443 22.2774 19.4443 21.7855 19.9776L21.3535 20.4458L20.8402 19.9374C20.5579 19.6578 20.3271 19.4129 20.3273 19.3932C20.3275 19.3735 20.5152 19.1617 20.7445 18.9226L21.1614 18.4878L20.7978 18.1207C20.5979 17.9189 20.4063 17.7537 20.3722 17.7537C20.3381 17.7537 20.1141 17.958 19.8745 18.2078L19.4388 18.6619L19.0958 18.3199C18.7817 18.0067 18.7528 17.951 18.7528 17.658C18.7528 17.4183 18.7915 17.2985 18.9068 17.1806C19.2552 16.8245 19.8938 16.1344 20.061 15.9332L20.24 15.7179L20.6406 16.1216C20.9953 16.4791 21.2851 16.6346 21.2851 16.4677C21.2851 16.436 21.4355 16.2627 21.6194 16.0827L21.9537 15.7553L21.5167 15.3477C21.2764 15.1235 21.0798 14.9206 21.0798 14.8968C21.0798 14.8729 21.292 14.6288 21.5515 14.3542L22.0233 13.8549L22.9163 14.6879L23.0759 14.5268C23.1637 14.4382 23.3387 14.2451 23.4647 14.0978L23.6938 13.8298L22.6445 12.8519L22.7579 12.5219C22.9016 12.1042 22.9501 11.8481 22.9455 11.5314C22.9428 11.3442 22.9705 11.279 23.0545 11.2754C23.1164 11.2728 23.375 11.2654 23.6291 11.2591L24.0911 11.2476V10.1715L23.5248 10.1887C23.2133 10.1982 22.9194 10.1819 22.8718 10.1525C22.8241 10.1231 22.6932 9.90524 22.581 9.6683C22.4687 9.43136 22.3314 9.19987 22.2758 9.15389C22.2202 9.10791 22.1748 9.04475 22.1748 9.01354C22.1748 8.98232 22.3767 8.75139 22.6236 8.50036L23.0724 8.04393L22.846 7.80887C22.7215 7.67959 22.5323 7.51111 22.4255 7.43445L22.2315 7.29508L21.764 7.77622C21.3125 8.24093 21.2925 8.25297 21.18 8.12896C21.1159 8.05834 21.044 8.00586 21.0203 8.01234C20.9965 8.01882 20.9078 7.98582 20.8231 7.93899C20.7384 7.89217 20.6691 7.871 20.6691 7.89195C20.6691 7.9129 20.5921 7.87974 20.498 7.81826C20.4039 7.75678 20.3269 7.72912 20.3269 7.7568C20.3269 7.78448 20.2847 7.77216 20.233 7.72941C20.1744 7.68088 20.1215 7.42695 20.0922 7.05346L20.0452 6.45523L19.5188 6.46776C19.2293 6.47467 18.9677 6.48333 18.9375 6.48707C18.9073 6.49078 18.9033 6.74862 18.9286 7.06005L18.9747 7.62627L18.6756 7.64931C18.511 7.66198 18.3225 7.67478 18.2566 7.67776C18.1908 7.68074 18.1369 7.70912 18.1369 7.74082C18.1369 7.77253 18.1061 7.77949 18.0684 7.7563C18.0308 7.7331 18 7.74846 18 7.79042C18 7.83238 17.9692 7.84773 17.9316 7.82454C17.8939 7.80134 17.8631 7.80835 17.8631 7.84011C17.8631 7.87187 17.7966 7.90286 17.7153 7.90896C17.634 7.91508 17.5484 7.95084 17.5251 7.98846C17.5018 8.02608 17.2218 7.81469 16.903 7.51871L16.3233 6.98057L15.5335 7.82454L15.9797 8.25046C16.2251 8.48471 16.4256 8.69968 16.4252 8.72815C16.4248 8.75663 16.2824 8.93347 16.1088 9.12113C15.9352 9.30879 15.7359 9.53493 15.6658 9.62365L15.5385 9.78496L14.5502 8.89936L13.7511 9.7353L14.2 10.1448C14.4469 10.3699 14.6484 10.59 14.6477 10.6338C14.6469 10.6776 14.4488 10.9145 14.2072 11.1601L13.768 11.6069L12.819 10.7308L12.3293 11.1543L11.9422 11.5778L12.4902 12.0037C12.7579 12.2118 12.9354 12.453 12.9352 12.4814C12.9351 12.5099 12.7503 12.7307 12.5246 12.972C12.2989 13.2134 12.1143 13.4481 12.1143 13.4936C12.1143 13.6332 11.9333 13.6549 11.7628 13.5359C11.6738 13.4737 11.601 13.4321 11.601 13.4434C11.601 13.4687 11.3499 13.3746 10.985 13.2127C10.5594 13.0237 10.4711 13.0431 10.3493 13.3521C10.2902 13.5022 10.2089 13.6476 10.1686 13.6752C10.1283 13.7028 10.1222 13.7258 10.155 13.7264C10.1879 13.727 10.1764 13.7735 10.1295 13.8298C10.0625 13.9104 10.0621 13.9535 10.1278 14.0323C10.1737 14.0874 10.2313 14.1288 10.2559 14.1242C10.2806 14.1196 10.4239 14.1702 10.5745 14.2368C10.725 14.3033 10.8482 14.3465 10.8482 14.3329C10.8482 14.3192 10.9483 14.3791 11.0706 14.4659C11.2909 14.6223 11.3621 14.856 11.2313 14.9933C11.1372 15.0921 10.9129 15.7749 10.8327 16.2066C10.7938 16.4163 10.8491 16.4107 10.027 16.2881C9.91403 16.2712 9.71142 16.246 9.5767 16.232C9.44198 16.218 9.29782 16.1857 9.25634 16.1601C9.15328 16.0966 9.10714 16.1891 9.03198 16.6096C8.9088 17.299 8.87352 17.2365 9.42821 17.3114C9.5506 17.3279 9.76618 17.3577 9.90728 17.3775C10.0484 17.3974 10.251 17.4216 10.3575 17.4313C10.464 17.441 10.576 17.4945 10.6063 17.5501C10.6366 17.6058 10.7289 18.0063 10.6864 18.4361L10.7113 19.2208L10.5402 19.2396C10.4461 19.2499 10.2029 19.2653 9.99962 19.2737C9.56089 19.292 9.53292 19.3373 9.58207 19.95L9.61632 20.377L9.95852 20.3534C10.1467 20.3404 10.4833 20.326 10.7065 20.3213L11.1122 20.3127L11.3908 20.8587C11.5441 21.1589 11.6849 21.42 11.7037 21.4387C11.7225 21.4575 11.7784 21.5448 11.828 21.6327C11.9062 21.7716 11.9018 21.8049 11.7938 21.8881C11.7254 21.9407 11.6002 22.0026 11.5155 22.0257C11.4308 22.0488 11.3615 22.0969 11.3615 22.1326C11.3615 22.1682 11.3305 22.1783 11.2926 22.155C11.2547 22.1316 11.2053 22.1603 11.1828 22.2188C11.1603 22.2773 11.1216 22.3126 11.0969 22.2974C11.0722 22.2822 10.9968 22.31 10.9293 22.3592C10.8136 22.4435 10.8215 22.4769 11.0636 22.9321C11.2088 23.2051 11.3411 23.3824 11.3677 23.3396C11.3935 23.2979 11.4489 23.2849 11.4907 23.3107C11.5326 23.3365 11.5668 23.3265 11.5668 23.2885C11.5668 23.233 12.0899 22.9558 12.2184 22.9433C12.2365 22.9415 12.3128 22.8786 12.3881 22.8036C12.5618 22.6304 12.7886 22.628 12.8523 22.7988C12.8793 22.8713 13.0939 23.1041 13.3291 23.3163C13.5644 23.5285 13.7568 23.738 13.7568 23.7817C13.7567 23.8255 13.6143 24.072 13.3831 24.2708L13.0094 24.6802L13.3293 25.0044C13.69 25.37 13.8852 25.4633 13.9707 25.3109C14.002 25.2552 14.1667 25.0626 14.3368 24.8831L14.6461 24.5567L15.1083 24.9673C15.3625 25.1932 15.5803 25.4274 15.5923 25.4879C15.6043 25.5486 15.4442 25.774 15.2346 25.9915L14.8551 26.3852L15.2105 26.744C15.5216 27.0582 15.8099 27.206 15.8101 27.0516C15.8101 27.0235 15.9678 26.8366 16.1605 26.6363L16.5108 26.2721L16.7764 26.5307C16.9224 26.6729 17.0419 26.7615 17.0419 26.7275C17.0419 26.6935 17.1651 26.7856 17.3157 26.9322C17.4662 27.0788 17.5894 27.2177 17.5894 27.2408C17.5894 27.2639 17.4053 27.4801 17.1802 27.7211L16.771 28.1594L17.5552 28.9511L18.1857 28.2829C18.5324 27.9153 18.8557 27.6262 18.9042 27.6404ZM19.095 26.5408C18.7788 26.4625 18.407 26.2931 18.2495 26.1557C18.1796 26.0948 18.1147 26.0604 18.1052 26.0791C18.0798 26.129 13.6371 21.9887 13.2977 21.5989C12.6186 20.8188 12.2834 20.2095 12.004 19.247C11.7333 18.3141 11.7366 17.1963 12.0131 16.1841C12.0387 16.0903 12.0755 15.9291 12.0947 15.8259C12.114 15.7226 12.1571 15.6382 12.1905 15.6382C12.2238 15.6382 12.2511 15.564 12.2511 15.4733C12.2511 15.3826 12.2742 15.2981 12.3025 15.2856C12.3307 15.2731 12.4272 15.1183 12.517 14.9417C12.6068 14.7651 12.7376 14.5591 12.8079 14.484C12.8781 14.4088 12.9355 14.3267 12.9355 14.3015C12.9355 14.2371 13.8179 13.2661 15.4394 11.5462C15.7061 11.2633 16.1372 10.8017 16.3975 10.5203C17.8673 8.93138 18.1565 8.744 19.1635 8.72788C19.567 8.72142 19.8216 8.77044 20.1558 8.91892C20.3064 8.98581 20.447 9.04331 20.4683 9.04671C20.4897 9.05009 20.6959 9.22323 20.9267 9.43145C21.4046 9.8627 21.7295 10.4554 21.7997 11.0242C21.8509 11.4382 21.6884 12.2966 21.5092 12.5596C21.4424 12.6577 21.3723 12.7739 21.3535 12.8178C21.3347 12.8617 21.1802 13.046 21.0102 13.2273C17.8189 16.6295 17.8152 16.6339 17.6605 17.0973C17.4568 17.7077 17.5284 18.1165 17.9658 18.8401C18.0034 18.9024 18.8658 19.7256 19.8821 20.6694C20.8984 21.6133 21.7969 22.4873 21.8787 22.6116C22.1963 23.0943 22.3108 23.6785 22.2433 24.4726C22.2271 24.6626 22.0935 24.9912 21.8626 25.4086C21.6195 25.8481 20.7584 26.4552 20.2585 26.5395C19.9122 26.5979 19.3279 26.5986 19.095 26.5408ZM19.1545 22.5893C19.3476 22.3776 19.5057 22.1885 19.5057 22.1692C19.5057 22.1114 18.6097 21.268 18.2224 20.9612C18.0248 20.8046 17.8631 20.6982 17.8631 20.7247C17.8631 20.7513 17.8208 20.738 17.7691 20.6952C17.5762 20.5355 17.1506 20.5638 16.7287 20.7644L16.3233 20.9572L15.8802 20.5326C15.6365 20.2991 15.4258 20.1026 15.412 20.0961C15.3552 20.0691 15.5281 19.8533 15.9927 19.3712C16.5299 18.8137 16.6262 18.5952 16.5624 18.0788C16.5179 17.718 16.3701 17.4864 15.9874 17.1776L15.7288 16.9689L14.9259 17.856L15.1378 18.0326C15.2544 18.1296 15.3378 18.2426 15.3232 18.2837C15.3086 18.3247 15.142 18.5217 14.9529 18.7213C14.5859 19.109 14.3889 19.3804 14.2571 19.6801C14.1626 19.8951 14.2248 20.4176 14.3777 20.6939C14.5497 21.0044 15.6299 21.9597 15.9175 22.0557C16.2205 22.1568 16.6997 22.184 16.6997 22.1C16.6997 22.0697 16.7259 22.061 16.7579 22.0807C16.7899 22.1005 16.9191 22.0408 17.0449 21.9483C17.1708 21.8557 17.2936 21.7799 17.3179 21.7799C17.3422 21.7799 17.6616 22.0582 18.0276 22.3983C18.3936 22.7385 18.7179 23.0072 18.7482 22.9955C18.7786 22.9837 18.9614 22.8009 19.1545 22.5893ZM16.4332 14.1902C16.8244 13.7692 17.3463 13.2087 17.5929 12.9448C18.4889 11.9859 19.1219 11.3043 19.1392 11.2797C19.1489 11.2659 19.377 11.4496 19.646 11.688L20.135 12.1214L20.9634 11.2481L20.4912 10.815C20.2314 10.5769 19.9112 10.3312 19.7794 10.269C19.4774 10.1266 18.9094 10.0989 18.6812 10.2155C18.5853 10.2644 18.1696 10.6668 17.7573 11.1096C17.345 11.5525 16.7897 12.146 16.5233 12.4287C16.2569 12.7114 15.7688 13.233 15.4387 13.5878L14.8386 14.2329L15.2387 14.5917C15.4588 14.789 15.6576 14.9516 15.6804 14.9531C15.7032 14.9547 16.042 14.6113 16.4332 14.1902Z" fill="white"/>
<path d="M52.5456 15.1915C51.4073 15.1915 50.3755 14.9468 49.45 14.4575C48.5351 13.9575 47.8118 13.2714 47.2799 12.399C46.7586 11.5161 46.498 10.5215 46.498 9.41513C46.498 8.3088 46.7586 7.31948 47.2799 6.44718C47.8118 5.56424 48.5351 4.8781 49.45 4.38876C50.3755 3.88878 51.4127 3.63879 52.5616 3.63879C53.5296 3.63879 54.4019 3.80899 55.1785 4.1494C55.9657 4.48981 56.6252 4.97916 57.1571 5.61743L55.4976 7.14927C54.7423 6.27697 53.8062 5.84082 52.6892 5.84082C51.9977 5.84082 51.3808 5.99507 50.8382 6.30357C50.2957 6.60143 49.8702 7.02162 49.5617 7.56415C49.2638 8.10668 49.1149 8.72367 49.1149 9.41513C49.1149 10.1066 49.2638 10.7236 49.5617 11.2661C49.8702 11.8086 50.2957 12.2342 50.8382 12.5427C51.3808 12.8405 51.9977 12.9894 52.6892 12.9894C53.8062 12.9894 54.7423 12.548 55.4976 11.665L57.1571 13.1969C56.6252 13.8458 55.9657 14.3405 55.1785 14.6809C54.3913 15.0213 53.5136 15.1915 52.5456 15.1915Z" fill="white"/>
<path d="M64.0783 15.1915C62.9188 15.1915 61.871 14.9415 60.9349 14.4415C60.0094 13.9415 59.2807 13.2554 58.7488 12.3831C58.2275 11.5002 57.9669 10.5108 57.9669 9.41513C57.9669 8.31944 58.2275 7.33544 58.7488 6.46313C59.2807 5.58019 60.0094 4.88873 60.9349 4.38876C61.871 3.88878 62.9188 3.63879 64.0783 3.63879C65.2379 3.63879 66.2804 3.88878 67.2059 4.38876C68.1314 4.88873 68.8601 5.58019 69.3919 6.46313C69.9238 7.33544 70.1898 8.31944 70.1898 9.41513C70.1898 10.5108 69.9238 11.5002 69.3919 12.3831C68.8601 13.2554 68.1314 13.9415 67.2059 14.4415C66.2804 14.9415 65.2379 15.1915 64.0783 15.1915ZM64.0783 12.9894C64.7379 12.9894 65.3336 12.8405 65.8655 12.5427C66.3974 12.2342 66.8123 11.8086 67.1101 11.2661C67.4186 10.7236 67.5729 10.1066 67.5729 9.41513C67.5729 8.72367 67.4186 8.10668 67.1101 7.56415C66.8123 7.02162 66.3974 6.60143 65.8655 6.30357C65.3336 5.99507 64.7379 5.84082 64.0783 5.84082C63.4188 5.84082 62.8231 5.99507 62.2912 6.30357C61.7593 6.60143 61.3391 7.02162 61.0306 7.56415C60.7327 8.10668 60.5838 8.72367 60.5838 9.41513C60.5838 10.1066 60.7327 10.7236 61.0306 11.2661C61.3391 11.8086 61.7593 12.2342 62.2912 12.5427C62.8231 12.8405 63.4188 12.9894 64.0783 12.9894Z" fill="white"/>
<path d="M82.4974 3.83027L77.6625 15H75.1095L70.2905 3.83027H73.0829L76.4817 11.8086L79.9284 3.83027H82.4974Z" fill="white"/>
<path d="M83.43 3.83027H86.015V15H83.43V3.83027Z" fill="white"/>
<path d="M88.6658 3.83027H93.7401C94.9528 3.83027 96.0219 4.0643 96.9474 4.53237C97.8835 4.98979 98.6069 5.6387 99.1175 6.47909C99.6388 7.31948 99.8994 8.29816 99.8994 9.41513C99.8994 10.5321 99.6388 11.5108 99.1175 12.3512C98.6069 13.1916 97.8835 13.8458 96.9474 14.3139C96.0219 14.7713 94.9528 15 93.7401 15H88.6658V3.83027ZM93.6124 12.8778C94.7294 12.8778 95.6177 12.5693 96.2772 11.9523C96.9474 11.3246 97.2825 10.4789 97.2825 9.41513C97.2825 8.35135 96.9474 7.51096 96.2772 6.89397C95.6177 6.26633 94.7294 5.95252 93.6124 5.95252H91.2508V12.8778H93.6124Z" fill="white"/>
<path d="M101.417 9.51087H105.932V11.5055H101.417V9.51087Z" fill="white"/>
<path d="M111.33 3.83027V15H108.745V5.90465H106.511V3.83027H111.33Z" fill="white"/>
<path d="M117.196 3.63879C118.759 3.63879 119.983 4.11749 120.866 5.0749C121.749 6.02166 122.19 7.38863 122.19 9.17578C122.19 10.4417 121.951 11.5267 121.472 12.431C121.004 13.3352 120.339 14.0213 119.477 14.4894C118.616 14.9574 117.621 15.1915 116.493 15.1915C115.898 15.1915 115.329 15.1277 114.786 15C114.244 14.8617 113.781 14.6702 113.398 14.4256L114.355 12.5267C114.898 12.899 115.595 13.0852 116.446 13.0852C117.392 13.0852 118.142 12.8086 118.695 12.2554C119.249 11.6916 119.546 10.8832 119.589 9.83001C118.919 10.5002 117.993 10.8353 116.813 10.8353C116.1 10.8353 115.451 10.6917 114.866 10.4045C114.281 10.1172 113.818 9.71299 113.478 9.19174C113.137 8.65985 112.967 8.04817 112.967 7.35671C112.967 6.61206 113.153 5.95784 113.525 5.39403C113.898 4.83023 114.403 4.39939 115.041 4.10153C115.69 3.79304 116.408 3.63879 117.196 3.63879ZM117.387 8.90452C117.951 8.90452 118.408 8.75027 118.759 8.44177C119.121 8.12264 119.302 7.7184 119.302 7.22906C119.302 6.73972 119.126 6.3408 118.775 6.0323C118.435 5.7238 117.961 5.56956 117.355 5.56956C116.802 5.56956 116.35 5.71848 115.999 6.01634C115.658 6.3142 115.488 6.71844 115.488 7.22906C115.488 7.73967 115.658 8.14923 115.999 8.45773C116.35 8.75559 116.813 8.90452 117.387 8.90452Z" fill="white"/>
<path d="M51.8827 30.0107H47.734L46.8404 32H46.0213L49.4254 24.5535H50.2019L53.6061 32H52.7763L51.8827 30.0107ZM51.5955 29.3725L49.8083 25.3726L48.0212 29.3725H51.5955Z" fill="white"/>
<path d="M55.4017 27.5002C55.579 27.1243 55.8414 26.8406 56.1889 26.6492C56.5435 26.4577 56.9796 26.3619 57.4973 26.3619V27.096L57.3165 27.0853C56.7279 27.0853 56.2669 27.2662 55.9336 27.6278C55.6003 27.9895 55.4336 28.4966 55.4336 29.1491V32H54.6783V26.4045H55.4017V27.5002Z" fill="white"/>
<path d="M63.6851 29.4363H59.0044C59.047 30.0178 59.2704 30.4894 59.6746 30.8511C60.0788 31.2057 60.5895 31.383 61.2065 31.383C61.554 31.383 61.8731 31.3227 62.1639 31.2022C62.4546 31.0745 62.7064 30.8901 62.9192 30.649L63.3447 31.1383C63.0965 31.4362 62.7844 31.6631 62.4085 31.8192C62.0398 31.9752 61.632 32.0532 61.1852 32.0532C60.6107 32.0532 60.1001 31.9326 59.6533 31.6915C59.2136 31.4433 58.8697 31.1029 58.6215 30.6703C58.3732 30.2377 58.2491 29.7483 58.2491 29.2022C58.2491 28.6562 58.3662 28.1668 58.6002 27.7342C58.8413 27.3016 59.1675 26.9648 59.5789 26.7236C59.9973 26.4825 60.4654 26.3619 60.9831 26.3619C61.5008 26.3619 61.9653 26.4825 62.3766 26.7236C62.788 26.9648 63.1106 27.3016 63.3447 27.7342C63.5787 28.1597 63.6957 28.6491 63.6957 29.2022L63.6851 29.4363ZM60.9831 27.0109C60.4441 27.0109 59.9902 27.1846 59.6214 27.5321C59.2597 27.8725 59.0541 28.3193 59.0044 28.8725H62.9723C62.9227 28.3193 62.7135 27.8725 62.3447 27.5321C61.983 27.1846 61.5291 27.0109 60.9831 27.0109Z" fill="white"/>
<path d="M67.0346 26.3619C67.765 26.3619 68.3253 26.5463 68.7154 26.9151C69.1054 27.2768 69.3004 27.8158 69.3004 28.5321V32H68.5771V31.1277C68.4069 31.4185 68.1551 31.6454 67.8218 31.8085C67.4956 31.9716 67.1055 32.0532 66.6516 32.0532C66.0275 32.0532 65.5311 31.9043 65.1623 31.6064C64.7935 31.3085 64.6092 30.9149 64.6092 30.4256C64.6092 29.9504 64.7794 29.5675 65.1198 29.2767C65.4673 28.9859 66.0169 28.8406 66.7686 28.8406H68.5452V28.5002C68.5452 28.0179 68.4104 27.6527 68.1409 27.4045C67.8714 27.1491 67.4778 27.0215 66.9601 27.0215C66.6055 27.0215 66.2651 27.0818 65.9389 27.2023C65.6127 27.3158 65.3325 27.4754 65.0985 27.681L64.7581 27.1172C65.0418 26.8761 65.3822 26.6917 65.7793 26.5641C66.1765 26.4293 66.5949 26.3619 67.0346 26.3619ZM66.7686 31.4575C67.1942 31.4575 67.5594 31.3617 67.8643 31.1702C68.1693 30.9717 68.3962 30.688 68.5452 30.3192V29.4044H66.7899C65.8325 29.4044 65.3538 29.7377 65.3538 30.4043C65.3538 30.7306 65.4779 30.9894 65.7261 31.1809C65.9743 31.3653 66.3218 31.4575 66.7686 31.4575Z" fill="white"/>
<path d="M76.3487 32.0638C75.7955 32.0638 75.2636 31.9752 74.753 31.7979C74.2495 31.6206 73.8594 31.3866 73.5828 31.0958L73.8913 30.4894C74.1608 30.7589 74.519 30.9788 74.9658 31.149C75.4126 31.3121 75.8735 31.3936 76.3487 31.3936C77.0153 31.3936 77.5153 31.2731 77.8486 31.032C78.1819 30.7837 78.3486 30.4646 78.3486 30.0746C78.3486 29.7767 78.2564 29.5391 78.072 29.3618C77.8947 29.1845 77.6749 29.0498 77.4125 28.9576C77.1501 28.8583 76.7848 28.7519 76.3168 28.6384C75.7565 28.4966 75.3097 28.3619 74.9764 28.2342C74.6431 28.0995 74.3559 27.8973 74.1147 27.6278C73.8807 27.3584 73.7637 26.9931 73.7637 26.5322C73.7637 26.1563 73.863 25.8159 74.0615 25.5109C74.2601 25.1989 74.5651 24.9507 74.9764 24.7663C75.3877 24.5819 75.8983 24.4897 76.5082 24.4897C76.9338 24.4897 77.3486 24.55 77.7529 24.6705C78.1642 24.784 78.5188 24.9436 78.8167 25.1492L78.5507 25.7769C78.2387 25.5712 77.9053 25.4187 77.5508 25.3194C77.1962 25.2131 76.8487 25.1599 76.5082 25.1599C75.8558 25.1599 75.3629 25.2875 75.0296 25.5428C74.7034 25.791 74.5402 26.1137 74.5402 26.5109C74.5402 26.8087 74.6289 27.0499 74.8062 27.2342C74.9906 27.4115 75.2175 27.5498 75.487 27.6491C75.7636 27.7413 76.1324 27.8442 76.5933 27.9576C77.1394 28.0924 77.5791 28.2271 77.9124 28.3619C78.2528 28.4895 78.5401 28.6881 78.7741 28.9576C79.0081 29.22 79.1252 29.5781 79.1252 30.032C79.1252 30.4079 79.0223 30.7518 78.8167 31.0639C78.6181 31.3688 78.3096 31.6135 77.8912 31.7979C77.4727 31.9752 76.9586 32.0638 76.3487 32.0638Z" fill="white"/>
<path d="M82.9998 32.0532C82.4466 32.0532 81.9502 31.9326 81.5105 31.6915C81.0779 31.4504 80.7375 31.1135 80.4893 30.6809C80.2411 30.2412 80.117 29.7483 80.117 29.2022C80.117 28.6562 80.2411 28.1668 80.4893 27.7342C80.7375 27.3016 81.0779 26.9648 81.5105 26.7236C81.9502 26.4825 82.4466 26.3619 82.9998 26.3619C83.4821 26.3619 83.9111 26.4577 84.287 26.6492C84.67 26.8336 84.9714 27.1066 85.1912 27.4683L84.6274 27.8512C84.443 27.5747 84.209 27.369 83.9253 27.2342C83.6416 27.0924 83.3331 27.0215 82.9998 27.0215C82.5956 27.0215 82.2303 27.1137 81.9041 27.2981C81.585 27.4754 81.3332 27.7307 81.1488 28.064C80.9715 28.3973 80.8829 28.7767 80.8829 29.2022C80.8829 29.6349 80.9715 30.0178 81.1488 30.3511C81.3332 30.6774 81.585 30.9327 81.9041 31.1171C82.2303 31.2944 82.5956 31.383 82.9998 31.383C83.3331 31.383 83.6416 31.3156 83.9253 31.1809C84.209 31.0461 84.443 30.8405 84.6274 30.5639L85.1912 30.9469C84.9714 31.3085 84.67 31.5851 84.287 31.7766C83.904 31.961 83.475 32.0532 82.9998 32.0532Z" fill="white"/>
<path d="M88.6323 26.3619C89.3628 26.3619 89.923 26.5463 90.3131 26.9151C90.7031 27.2768 90.8982 27.8158 90.8982 28.5321V32H90.1748V31.1277C90.0046 31.4185 89.7528 31.6454 89.4195 31.8085C89.0933 31.9716 88.7032 32.0532 88.2493 32.0532C87.6253 32.0532 87.1288 31.9043 86.76 31.6064C86.3913 31.3085 86.2069 30.9149 86.2069 30.4256C86.2069 29.9504 86.3771 29.5675 86.7175 29.2767C87.065 28.9859 87.6146 28.8406 88.3664 28.8406H90.1429V28.5002C90.1429 28.0179 90.0081 27.6527 89.7386 27.4045C89.4691 27.1491 89.0755 27.0215 88.5578 27.0215C88.2032 27.0215 87.8628 27.0818 87.5366 27.2023C87.2104 27.3158 86.9303 27.4754 86.6962 27.681L86.3558 27.1172C86.6395 26.8761 86.9799 26.6917 87.377 26.5641C87.7742 26.4293 88.1926 26.3619 88.6323 26.3619ZM88.3664 31.4575C88.7919 31.4575 89.1571 31.3617 89.4621 31.1702C89.767 30.9717 89.9939 30.688 90.1429 30.3192V29.4044H88.3876C87.4302 29.4044 86.9515 29.7377 86.9515 30.4043C86.9515 30.7306 87.0756 30.9894 87.3239 31.1809C87.5721 31.3653 87.9196 31.4575 88.3664 31.4575Z" fill="white"/>
<path d="M95.8005 26.3619C96.5026 26.3619 97.0594 26.5676 97.4707 26.9789C97.8891 27.3832 98.0983 27.9754 98.0983 28.7555V32H97.343V28.8299C97.343 28.2484 97.1976 27.8051 96.9069 27.5002C96.6161 27.1952 96.2012 27.0428 95.6623 27.0428C95.0594 27.0428 94.5807 27.2236 94.2261 27.5853C93.8786 27.9399 93.7049 28.4328 93.7049 29.064V32H92.9496V26.4045H93.673V27.4364C93.8786 27.096 94.1623 26.8336 94.524 26.6492C94.8928 26.4577 95.3183 26.3619 95.8005 26.3619Z" fill="white"/>
<path d="M103 26.3619C103.702 26.3619 104.259 26.5676 104.67 26.9789C105.088 27.3832 105.298 27.9754 105.298 28.7555V32H104.542V28.8299C104.542 28.2484 104.397 27.8051 104.106 27.5002C103.815 27.1952 103.4 27.0428 102.861 27.0428C102.259 27.0428 101.78 27.2236 101.425 27.5853C101.078 27.9399 100.904 28.4328 100.904 29.064V32H100.149V26.4045H100.872V27.4364C101.078 27.096 101.362 26.8336 101.723 26.6492C102.092 26.4577 102.518 26.3619 103 26.3619Z" fill="white"/>
<path d="M112.241 29.4363H107.56C107.603 30.0178 107.826 30.4894 108.231 30.8511C108.635 31.2057 109.145 31.383 109.762 31.383C110.11 31.383 110.429 31.3227 110.72 31.2022C111.011 31.0745 111.262 30.8901 111.475 30.649L111.901 31.1383C111.652 31.4362 111.34 31.6631 110.964 31.8192C110.596 31.9752 110.188 32.0532 109.741 32.0532C109.167 32.0532 108.656 31.9326 108.209 31.6915C107.77 31.4433 107.426 31.1029 107.177 30.6703C106.929 30.2377 106.805 29.7483 106.805 29.2022C106.805 28.6562 106.922 28.1668 107.156 27.7342C107.397 27.3016 107.723 26.9648 108.135 26.7236C108.553 26.4825 109.021 26.3619 109.539 26.3619C110.057 26.3619 110.521 26.4825 110.933 26.7236C111.344 26.9648 111.667 27.3016 111.901 27.7342C112.135 28.1597 112.252 28.6491 112.252 29.2022L112.241 29.4363ZM109.539 27.0109C109 27.0109 108.546 27.1846 108.177 27.5321C107.816 27.8725 107.61 28.3193 107.56 28.8725H111.528C111.479 28.3193 111.269 27.8725 110.901 27.5321C110.539 27.1846 110.085 27.0109 109.539 27.0109Z" fill="white"/>
<path d="M114.512 27.5002C114.69 27.1243 114.952 26.8406 115.3 26.6492C115.654 26.4577 116.09 26.3619 116.608 26.3619V27.096L116.427 27.0853C115.839 27.0853 115.378 27.2662 115.044 27.6278C114.711 27.9895 114.544 28.4966 114.544 29.1491V32H113.789V26.4045H114.512V27.5002Z" fill="white"/>
</svg>
